<?xml version="1.0" encoding="utf-8"?>
<!-- Generated by IcoMoon.io -->
<!DOCTYPE svg PUBLIC "-//W3C//DTD SVG 1.1//EN" "http://www.w3.org/Graphics/SVG/1.1/DTD/svg11.dtd">
<svg version="1.1" xmlns="http://www.w3.org/2000/svg" xmlns:xlink="http://www.w3.org/1999/xlink" width="50" height="50" viewBox="0 0 50 50" fill="#221E1B">
<path fill="#FFFFFF" d="M47.308 17.411c0-3.546-1.26-6.443-3.342-8.717 0.337-0.819 1.449-4.121-0.319-8.596 0 0-2.723-0.873-8.923 3.329-2.596-0.72-5.377-1.081-8.137-1.094-2.76 0.013-5.538 0.373-8.129 1.094-6.206-4.202-8.933-3.329-8.933-3.329-1.763 4.474-0.652 7.777-0.315 8.596-2.078 2.275-3.347 5.172-3.347 8.717 0 12.445 7.584 15.23 14.798 16.051-0.929 0.811-1.771 2.244-2.062 4.343-1.854 0.83-6.555 2.265-9.452-2.7 0 0-1.717-3.119-4.979-3.348 0 0-3.169-0.042-0.222 1.975 0 0 2.129 0.998 3.606 4.752 0 0 1.906 5.797 10.942 3.832 0.014 2.714 0.044 6.887 0.044 7.66h16.104c0-1.070 0.038-6.181 0.038-10.527 0-3.030-1.038-5.006-2.203-6.015 7.233-0.804 14.831-3.551 14.831-16.025zM6.41 33.261c-0.071 0.162-0.325 0.21-0.556 0.099-0.236-0.106-0.367-0.326-0.292-0.488 0.070-0.166 0.324-0.212 0.56-0.102 0.235 0.106 0.37 0.329 0.288 0.49zM7.726 34.729c-0.155 0.144-0.458 0.077-0.663-0.15-0.213-0.227-0.252-0.529-0.095-0.675 0.16-0.144 0.454-0.076 0.666 0.15 0.213 0.229 0.254 0.529 0.092 0.675zM9.006 36.598c-0.199 0.138-0.525 0.009-0.726-0.28-0.199-0.289-0.199-0.635 0.004-0.774 0.201-0.138 0.522-0.013 0.726 0.273 0.199 0.294 0.199 0.64-0.004 0.781zM10.761 38.406c-0.178 0.196-0.558 0.144-0.835-0.125-0.284-0.262-0.363-0.633-0.185-0.83 0.181-0.196 0.562-0.142 0.842 0.125 0.282 0.262 0.367 0.635 0.178 0.83zM13.181 39.456c-0.079 0.254-0.444 0.37-0.812 0.262-0.367-0.112-0.608-0.409-0.533-0.666 0.076-0.256 0.444-0.377 0.813-0.261 0.367 0.111 0.608 0.406 0.531 0.665zM15.15 40.144c-0.388 0.009-0.703-0.208-0.707-0.471 0-0.271 0.305-0.49 0.694-0.497 0.386-0.008 0.703 0.208 0.703 0.474 0.008 0.267-0.304 0.49-0.69 0.494zM17.707 39.83c-0.377 0.069-0.726-0.092-0.774-0.352-0.046-0.268 0.227-0.537 0.603-0.606 0.384-0.067 0.728 0.090 0.777 0.356 0.046 0.261-0.223 0.529-0.606 0.601z"></path>
</svg>
