<?xml version="1.0" encoding="utf-8"?>
<!-- Generated by IcoMoon.io -->
<!DOCTYPE svg PUBLIC "-//W3C//DTD SVG 1.1//EN" "http://www.w3.org/Graphics/SVG/1.1/DTD/svg11.dtd">
<svg version="1.1" xmlns="http://www.w3.org/2000/svg" xmlns:xlink="http://www.w3.org/1999/xlink" width="50" height="50" viewBox="0 0 50 50" fill="#3371B7">
<path fill="#FFFFFF" d="M37.365 25.635c-0.642-0.798-1.796-1.198-3.464-1.198-2.127 0-3.619 0.623-4.479 1.869s-1.287 2.979-1.287 5.204v17.077c0 0.337-0.127 0.633-0.381 0.887s-0.561 0.381-0.923 0.381h-8.92c-0.338 0-0.634-0.127-0.888-0.381s-0.381-0.55-0.381-0.887v-31.473c0-0.338 0.127-0.635 0.381-0.889 0.254-0.253 0.55-0.38 0.888-0.38h8.667c0.312 0 0.567 0.061 0.762 0.183 0.193 0.119 0.319 0.344 0.381 0.669 0.057 0.327 0.094 0.544 0.108 0.653 0.010 0.108 0.017 0.381 0.017 0.817 2.247-2.104 5.219-3.154 8.919-3.154 4.134 0 7.373 1.031 9.718 3.099 2.342 2.066 3.517 5.142 3.517 9.226v21.25c0 0.337-0.127 0.633-0.38 0.887-0.254 0.254-0.55 0.381-0.889 0.381h-9.137c-0.338 0-0.635-0.127-0.888-0.381-0.254-0.254-0.381-0.55-0.381-0.887v-19.181c0-1.717-0.319-2.971-0.96-3.771zM10.335 10.478c-1.187 1.185-2.613 1.777-4.281 1.777s-3.092-0.592-4.277-1.777c-1.183-1.185-1.776-2.61-1.776-4.278s0.592-3.094 1.777-4.278c1.185-1.184 2.61-1.777 4.277-1.777s3.094 0.592 4.281 1.777c1.182 1.185 1.777 2.61 1.777 4.278s-0.595 3.093-1.777 4.278zM11.783 17.114v31.473c0 0.337-0.126 0.633-0.38 0.887s-0.551 0.381-0.888 0.381h-8.921c-0.338 0-0.634-0.127-0.887-0.381s-0.381-0.55-0.381-0.887v-31.473c0-0.338 0.127-0.635 0.381-0.889 0.254-0.253 0.55-0.38 0.887-0.38h8.921c0.338 0 0.635 0.127 0.888 0.38 0.254 0.254 0.379 0.55 0.379 0.889z"></path>
</svg>
