<?xml version="1.0" encoding="utf-8"?>
<!-- Generated by IcoMoon.io -->
<!DOCTYPE svg PUBLIC "-//W3C//DTD SVG 1.1//EN" "http://www.w3.org/Graphics/SVG/1.1/DTD/svg11.dtd">
<svg version="1.1" xmlns="http://www.w3.org/2000/svg" xmlns:xlink="http://www.w3.org/1999/xlink" width="50" height="50" viewBox="0 0 50 50">
<path fill="#BCBBBB" d="M34 46h-24.948l0.132-16.785-3.762-0.055-0.021 20.84h32.598v-21h-4z"></path>
<path fill="#FD9827" d="M11.5 39h19.5v4h-19.5v-4z"></path>
<path fill="#FD9827" d="M12.016 31.539l19.625 1.895-0.411 4.256-19.625-1.895 0.411-4.256z"></path>
<path fill="#FD9827" d="M13.813 23.045l18.975 5.355-1.161 4.116-18.975-5.355 1.161-4.116z"></path>
<path fill="#FD9827" d="M18.412 13.447l16.876 10.193-2.211 3.662-16.876-10.193 2.211-3.662z"></path>
<path fill="#FD9827" d="M36.017 22.874l-11.484-16.027 3.477-2.491 11.484 16.027-3.477 2.491z"></path>
<path fill="#FD9827" d="M37.131 0.707l4.219-0.705 3.249 19.445-4.219 0.705-3.249-19.445z"></path>
</svg>
