<svg height="495pt" viewBox="-30 0 495 495.99031" width="495pt" xmlns="http://www.w3.org/2000/svg">
  <path fill="#4C3576" stroke="#4C3576" d="m196.375 119.027344-81.601562-22.722656c-3.9375-1.109376-8.078126.925781-9.601563 4.722656l-42.476563 107.277344c-6.550781 16.292968-10.804687 33.417968-12.640624 50.882812-3.359376 36.125 5.597656 62.511719 25.3125 76.4375l-27.6875 107.671875c-.554688.195313-1.136719.308594-1.722657.335937-.296875.023438-.59375.058594-.886719.113282l-37.992187 6.742187c-3.660156.660157-6.382813 3.75-6.574219 7.464844-.1875 3.710937 2.203125 7.066406 5.773438 8.097656l101.695312 29.613281c3.527344 1.023438 7.296875-.484374 9.144532-3.65625 1.84375-3.175781 1.296874-7.195312-1.335938-9.757812l-26.765625-26.054688c-.320313-.3125-.664063-.59375-1.035156-.839843-.59375-.394531-1.117188-.886719-1.542969-1.457031l27.578125-107.199219c24.398437-1.28125 45.199219-19.679688 59.917969-53.28125 6.839844-16.164063 11.363281-33.210938 13.441406-50.640625l14.71875-115.039063c.507812-3.917969-1.921875-7.617187-5.71875-8.710937zm-78.960938-5.363282 68 18.960938-7.921874 62.136719c-8.070313 3.105469-27.917969 8.9375-43.476563-1.433594-13.671875-8.382813-30.21875-10.679687-45.65625-6.34375zm-39.128906 354.402344 3.335938 3.238282-38.03125-11.070313 3.878906-.695313c7.125-.050781 13.398438-4.707031 15.503906-11.511718l27.023438-105.050782h.058594c1.117187.402344 2.238281.800782 3.4375 1.121094l1.761718.480469c.871094.238281 1.734375.472656 2.609375.632813l-27.089843 105.351562c-1.375 6.835938 1.613281 13.808594 7.511718 17.527344zm93.289063-227.28125c-1.871094 15.925782-6.023438 31.496094-12.320313 46.242188-15.121094 34.796875-35.28125 48.957031-59.761718 42.160156l-1.679688-.480469c-2.953125-.84375-5.820312-1.96875-8.558594-3.359375-.464844-.273437-.945312-.515625-1.441406-.722656-17.519531-9.917969-24.796875-31.359375-21.757812-63.917969 1.621093-15.960937 5.5-31.609375 11.519531-46.480469l3.121093-7.921874c7.09375-3.0625 28.109376-10.503907 44.421876.371093 8.847656 5.765625 19.21875 8.746094 29.777343 8.558594 6.882813-.054687 13.726563-1.039063 20.34375-2.929687zm0 0"/>
  <path fill="#4C3576" stroke="#4C3576" d="m156.597656 230.449219c-4.375-.523438-8.359375 2.5625-8.945312 6.929687-1.585938 13.550782-5.085938 26.808594-10.398438 39.375-14.519531 33.257813-26.472656 29.9375-31.617187 28.511719-4.257813-1.183594-8.667969 1.308594-9.851563 5.5625-1.183594 4.257813 1.308594 8.667969 5.566406 9.855469 3.070313.878906 6.25 1.335937 9.445313 1.359375 16.234375 0 29.753906-12.800781 41.128906-38.890625 5.90625-13.964844 9.800781-28.699219 11.566407-43.757813.558593-4.371093-2.523438-8.371093-6.894532-8.945312zm0 0"/>
  <path fill="#4C3576" stroke="#4C3576" d="m345.933594 262.921875c2.328125 24.800781-2.75 35.023437-7.421875 39.199219-2.179688 1.894531-3.167969 4.820312-2.585938 7.648437s2.640625 5.121094 5.390625 6.003907c2.75.882812 5.761719.214843 7.882813-1.746094 10.765625-9.65625 15.03125-27.363282 12.671875-52.601563-1.578125-15.203125-5.296875-30.109375-11.050782-44.273437-1.671874-4.035156-6.273437-5.984375-10.335937-4.371094-4.0625 1.609375-6.082031 6.183594-4.535156 10.269531 5.191406 12.753907 8.554687 26.175781 9.984375 39.871094zm0 0"/>
  <path fill="#4C3576" stroke="#4C3576" d="m428.773438 450.488281-38-6.742187c-.289063-.054688-.585938-.089844-.878907-.113282-.589843-.023437-1.167969-.140624-1.722656-.34375l-27.679687-107.65625c19.730468-13.925781 28.679687-40.3125 25.242187-76.445312-1.769531-17.46875-5.996094-34.597656-12.5625-50.882812l-42.558594-107.277344c-1.484375-3.792969-5.605469-5.835938-9.519531-4.722656l-81.601562 22.722656c-3.8125 1.078125-6.265626 4.785156-5.757813 8.71875l8.960937 70.160156.71875 5.679688 5.039063 39.199218c2.039063 17.4375 6.5625 34.488282 13.441406 50.640625 14.71875 33.601563 35.519531 52 59.917969 53.28125l27.5625 107.199219c-.417969.570312-.9375 1.0625-1.527344 1.449219-.371094.25-.722656.535156-1.042968.847656l-26.773438 26.054687c-2.632812 2.5625-3.183594 6.582032-1.335938 9.757813 1.847657 3.171875 5.617188 4.679687 9.140626 3.660156l101.738281-29.601562c3.570312-1.03125 5.960937-4.386719 5.773437-8.097657-.191406-3.710937-2.914062-6.804687-6.574218-7.460937zm-110.320313-336.824219 29.039063 73.203126c-15.695313-4.257813-32.449219-1.855469-46.320313 6.640624-15.039063 10-34.476563 4.316407-42.796875 1.039063l-7.921875-61.921875zm-41.917969 173.363282c-6.234375-14.761719-10.355468-30.328125-12.242187-46.242188l-3.679688-28.558594c6.636719 1.898438 13.5 2.894532 20.402344 2.960938 10.265625.175781 20.351563-2.722656 28.957031-8.320312 16.5625-11.042969 38.242188-3.601563 45.042969-.800782l3.277344 8.160156c6.019531 14.871094 9.898437 30.519532 11.519531 46.480469 3.042969 32.558594-4.238281 54-21.757812 63.917969-.496094.207031-.976563.449219-1.441407.722656-2.738281 1.390625-5.605469 2.515625-8.558593 3.359375l-1.679688.480469c-24.5625 6.796875-44.640625-7.363281-59.839844-42.160156zm77.695313 184.300781 3.328125-3.238281c5.898437-3.71875 8.886718-10.691406 7.511718-17.527344l-27.074218-105.304688c.875-.160156 1.746094-.390624 2.617187-.632812l1.761719-.480469c1.199219-.320312 2.320312-.71875 3.4375-1.117187h.050781l27.015625 105.046875c2.105469 6.804687 8.378906 11.460937 15.503906 11.511719l3.878907.695312zm0 0"/>
  <path fill="#4C3576" stroke="#4C3576" d="m137.8125 81.921875c.890625 3.5625 4.089844 6.0625 7.761719 6.0625.65625 0 1.308593-.082031 1.945312-.238281 4.285157-1.070313 6.890625-5.410156 5.820313-9.695313l-8-32c-.636719-2.832031-2.757813-5.097656-5.539063-5.917969-2.785156-.820312-5.792969-.070312-7.867187 1.960938-2.070313 2.035156-2.878906 5.027344-2.113282 7.828125zm0 0"/>
  <path fill="#4C3576" stroke="#4C3576" d="m174.757812 79.480469c.902344.332031 1.855469.5 2.816407.503906 3.335937.003906 6.320312-2.0625 7.496093-5.183594l24-64c1.546876-4.140625-.554687-8.75-4.695312-10.292969-4.140625-1.546874-8.75.554688-10.296875 4.695313l-24 64c-1.539063 4.128906.554687 8.726563 4.679687 10.277344zm0 0"/>
  <path fill="#4C3576" stroke="#4C3576" d="m215.171875 51.984375c2.210937 3.84375 7.117187 5.167969 10.957031 2.957031 3.84375-2.207031 5.164063-7.113281 2.957032-10.957031l-4.574219-8c-2.199219-3.832031-7.085938-5.164063-10.921875-2.964844-3.835938 2.195313-5.164063 7.082031-2.96875 10.917969zm0 0"/>
  <path fill="#4C3576" stroke="#4C3576" d="m241.261719 81.042969c-3.832031 2.191406-5.167969 7.074219-2.976563 10.910156l4.570313 8c1.429687 2.484375 4.082031 4.007813 6.949219 4 1.390624.003906 2.757812-.359375 3.960937-1.054687 3.847656-2.183594 5.191406-7.070313 3.007813-10.914063l-4.566407-8c-1.058593-1.84375-2.808593-3.191406-4.863281-3.742187-2.050781-.554688-4.242188-.265626-6.082031.800781zm0 0"/>
  <path fill="#4C3576" stroke="#4C3576" d="m271.230469 26.328125c-3.125-3.121094-8.1875-3.121094-11.3125 0l-64 64c-2.078125 2.011719-2.914063 4.984375-2.183594 7.78125.734375 2.796875 2.917969 4.980469 5.714844 5.714844 2.796875.730469 5.773437-.101563 7.78125-2.183594l64-64c3.121093-3.121094 3.121093-8.1875 0-11.3125zm0 0"/>
  <path fill="#4C3576" stroke="#4C3576" d="m265.988281 58.515625 8 24c1.398438 4.195313 5.933594 6.464844 10.128907 5.070313 4.199218-1.394532 6.46875-5.929688 5.074218-10.128907l-8-24c-1.398437-4.195312-5.933594-6.46875-10.128906-5.070312-4.199219 1.394531-6.46875 5.929687-5.074219 10.128906zm0 0"/>
</svg>