<?xml version="1.0" encoding="utf-8"?>
<!-- Generated by IcoMoon.io -->
<!DOCTYPE svg PUBLIC "-//W3C//DTD SVG 1.1//EN" "http://www.w3.org/Graphics/SVG/1.1/DTD/svg11.dtd">
<svg version="1.1" xmlns="http://www.w3.org/2000/svg" xmlns:xlink="http://www.w3.org/1999/xlink" width="50" height="50" viewBox="0 0 50 50">
<path fill="#FFFFFF" d="M44.881 14.802c0.019 0.44 0.031 0.882 0.031 1.327 0 13.556-10.319 29.188-29.187 29.188-5.793 0-11.185-1.7-15.725-4.61 0.802 0.094 1.619 0.144 2.447 0.144 4.806 0 9.229-1.64 12.74-4.392-4.49-0.082-8.277-3.049-9.583-7.125 0.627 0.121 1.269 0.185 1.931 0.185 0.935 0 1.842-0.126 2.702-0.36-4.693-0.942-8.229-5.088-8.229-10.058 0-0.044 0-0.086 0.001-0.129 1.383 0.767 2.965 1.229 4.646 1.283-2.752-1.84-4.563-4.979-4.563-8.539 0-1.879 0.506-3.642 1.389-5.157 5.060 6.207 12.618 10.29 21.144 10.719-0.175-0.751-0.265-1.535-0.265-2.338 0-5.665 4.592-10.258 10.258-10.258 2.951 0 5.617 1.245 7.488 3.239 2.336-0.46 4.531-1.313 6.513-2.489-0.765 2.396-2.392 4.405-4.51 5.675 2.074-0.248 4.052-0.799 5.892-1.615-1.377 2.058-3.115 3.865-5.119 5.31z"></path>
</svg>
